<svg viewBox="0 0 95 32" xmlns="http://www.w3.org/2000/svg" xmlns:serif="http://www.serif.com/" fill-rule="evenodd" clip-rule="evenodd" stroke-linejoin="round" stroke-miterlimit="1.414"><path serif:id="32_@mail_w" fill="none" d="M0 0h95v32H0z"/><clipPath id="a"><path d="M0 0h95v32H0z"/></clipPath><g clip-path="url(#a)"><path fill="#fff" d="M91.063 2.96h3.033v20.593h-3.033zM87.785 23.553h-3.033V8.96h3.033v14.593zM86.269 2.449a2.048 2.048 0 1 1-.001 4.095 2.048 2.048 0 0 1 .001-4.095zM81.475 23.553h-2.982v-1.596c-1.068 1.21-2.95 1.97-4.72 1.97a7.674 7.674 0 0 1-7.671-7.671 7.675 7.675 0 0 1 7.671-7.671c1.77 0 3.553.667 4.72 1.846V8.96h2.982v14.593zM73.87 11.651c2.61 0 4.664 1.868 4.664 4.605 0 2.738-2.054 4.622-4.664 4.622-2.611 0-4.595-2.011-4.595-4.622 0-2.61 1.984-4.605 4.595-4.605zM43.841 23.553H40.86V8.96h2.981v1.019c.662-.622 1.903-1.391 3.625-1.394 2.115 0 3.692.89 4.773 2.322 1.182-1.417 3.13-2.322 5.116-2.322 3.725 0 6.264 2.516 6.264 6.436v8.532h-2.981v-8.532a3.458 3.458 0 0 0-3.454-3.454 3.457 3.457 0 0 0-3.454 3.454v8.532h-2.981v-8.532a3.458 3.458 0 0 0-3.454-3.454 3.457 3.457 0 0 0-3.454 3.454v8.532z"/><path d="M20.813 16A4.818 4.818 0 0 1 16 20.813 4.818 4.818 0 0 1 11.187 16 4.818 4.818 0 0 1 16 11.187 4.818 4.818 0 0 1 20.813 16M16 0C7.178 0 0 7.178 0 16s7.178 16 16 16c3.232 0 6.349-.962 9.013-2.783l.046-.032-2.156-2.506-.036.024A12.672 12.672 0 0 1 16 28.72C8.986 28.72 3.28 23.014 3.28 16S8.986 3.28 16 3.28 28.72 8.986 28.72 16c0 .909-.101 1.829-.3 2.734-.402 1.651-1.558 2.157-2.426 2.09-.873-.071-1.894-.693-1.901-2.215V16c0-4.463-3.63-8.093-8.093-8.093S7.907 11.537 7.907 16s3.63 8.093 8.093 8.093a8.03 8.03 0 0 0 5.734-2.389 5.198 5.198 0 0 0 3.997 2.389 5.399 5.399 0 0 0 3.678-1.078c.959-.728 1.675-1.781 2.071-3.046.063-.204.179-.672.18-.675l.003-.017C31.896 18.262 32 17.25 32 16c0-8.822-7.178-16-16-16" fill="#ff9e00" fill-rule="nonzero"/></g></svg>